<svg xmlns="http://www.w3.org/2000/svg" version="1.1" xmlns:xlink="http://www.w3.org/1999/xlink" xmlns:svgjs="http://svgjs.dev/svgjs" width="39" height="31"><svg width="39" height="31" viewBox="0 0 39 31" fill="none" xmlns="http://www.w3.org/2000/svg">
<g clip-path="url(#clip0_25_6)">
<rect width="33" height="23" transform="translate(0.969604 7.68188) rotate(-12)" fill="#D3BF8B"></rect>
<path d="M11.8249 6.982C10.501 7.38741 9.34027 8.40568 8.80346 9.63118C8.00302 11.4454 8.51717 13.4304 10.1178 14.7297C10.625 15.1316 11.6745 15.5745 12.3507 15.6558C13.0134 15.7354 13.5229 15.7143 14.147 15.5817C14.8018 15.4379 15.0941 15.3252 15.6851 14.9746C16.9551 14.2224 17.8158 12.8776 17.9477 11.4212C17.9944 10.897 17.8186 9.91478 17.5849 9.40417C16.7653 7.5944 14.7967 6.54782 12.695 6.79707C12.4381 6.82871 12.2137 6.85803 12.1957 6.86645C12.1768 6.87047 12.0103 6.92422 11.8249 6.982Z" fill="black"></path>
<path d="M21.7428 4.8784C20.1165 5.38024 18.8605 6.6943 18.4904 8.27014C18.2158 9.45828 18.5091 10.838 19.2404 11.7985C20.1347 12.9678 21.778 13.6932 23.3053 13.5936C23.8246 13.5567 24.7673 13.3104 25.2401 13.0859C25.4486 12.9819 25.8042 12.7639 26.0312 12.5917C27.7348 11.3065 28.3559 9.14453 27.5408 7.32463C26.5954 5.20176 24.0981 4.14814 21.7428 4.8784Z" fill="black"></path>
<path d="M5.92547 15.0328C4.73136 15.429 3.8562 16.2718 3.49171 17.378C3.2923 17.9899 3.27899 18.3922 3.44033 19.1203C3.56619 19.6814 3.62503 19.8342 3.84125 20.1694C4.79275 21.6389 6.75694 22.1996 8.47829 21.4939C9.06647 21.254 9.45782 20.9871 9.86691 20.5557C10.7154 19.6498 10.9879 18.6687 10.7222 17.4806C10.6066 16.9679 10.5387 16.8032 10.3297 16.471C9.77866 15.6145 8.92219 15.0572 7.88172 14.8742C7.32717 14.7762 6.49147 14.8436 5.92547 15.0328Z" fill="black"></path>
<path d="M30.9515 9.69967C29.4692 10.1663 28.493 11.2464 28.2723 12.6573C28.2111 13.0515 28.2205 13.2194 28.3291 13.7612C28.5123 14.6545 28.8638 15.2228 29.5885 15.7806C29.9514 16.0617 30.7819 16.4041 31.2478 16.4566C32.6742 16.6265 33.8835 16.2087 34.7965 15.2339C35.2915 14.7107 35.5946 14.0906 35.7041 13.3968C35.7998 12.7932 35.6222 11.8023 35.3163 11.2932C34.5518 9.99068 33.0885 9.33729 31.4874 9.58577C31.2964 9.61718 31.0559 9.66371 30.9515 9.69967Z" fill="black"></path>
<path d="M17.9731 15.4158C16.7939 15.7583 15.5008 16.3087 14.6198 16.845C13.2305 17.6869 12.0805 18.8177 11.5192 19.8968C11.4115 20.1034 11.2011 20.4466 11.061 20.6555C10.2952 21.7644 9.93674 23.2091 10.16 24.2593C10.3925 25.3534 11.0865 26.1382 12.1799 26.5396C12.7172 26.7422 13.2914 26.8085 13.9125 26.7545C14.32 26.7185 14.4514 26.6859 14.9093 26.5151C15.5823 26.271 16.1158 25.9601 17.4486 25.0385C18.0347 24.6338 18.7627 24.1529 19.0654 23.9646L19.6132 23.6277L20.874 23.3597L22.1349 23.0917L22.7119 23.1712C23.0306 23.2136 23.7993 23.3579 24.4272 23.4908C26.3876 23.91 26.9691 23.9793 27.7793 23.8851C29.5368 23.6907 30.9593 22.3228 31.0803 20.7219C31.1814 19.3686 30.4127 17.9843 28.9837 16.9653C28.7343 16.7841 28.3743 16.5162 28.1929 16.3757C26.0309 14.6675 21.8896 14.2803 17.9731 15.4158Z" fill="black"></path>
</g>
<defs>
<clipPath id="SvgjsClipPath1005">
<rect width="33" height="23" fill="white" transform="translate(0.969604 7.68188) rotate(-12)"></rect>
</clipPath>
</defs>
</svg><style>@media (prefers-color-scheme: light) { :root { filter: none; } }
@media (prefers-color-scheme: dark) { :root { filter: none; } }
</style></svg>