<svg xmlns="http://www.w3.org/2000/svg" width="39" height="30" viewBox="0 0 39 30" fill="none">
<path d="M0.685547 0.123411C0.312305 0.279083 0 0.677603 0 0.995174C0 1.26916 0.228516 1.66145 0.472266 1.79844C0.601758 1.87317 1.9043 2.3215 3.3668 2.79474C4.83691 3.26176 6.06328 3.67274 6.09375 3.70387C6.1166 3.72878 7.59434 7.17225 9.36152 11.3443L12.576 18.9348L12.3094 19.1154C12.0123 19.3147 12.0809 19.1839 10.885 21.8926C10.0318 23.8354 9.94805 24.1156 10.1613 24.4518C10.3518 24.7507 10.6336 24.8504 11.3344 24.8815C11.6771 24.9002 11.959 24.9313 11.959 24.9562C11.959 24.9811 11.898 25.0496 11.8143 25.1057C11.5477 25.3049 11.1973 26.0397 11.1059 26.5939C11.0297 27.0485 11.0373 27.1854 11.1439 27.5466C11.342 28.1818 11.6314 28.6114 12.1875 29.066C13.6805 30.2864 15.8971 30.2989 17.4129 29.0971C18.167 28.4931 18.5326 27.7708 18.5326 26.9052C18.525 26.3012 18.3193 25.7284 17.9309 25.2613C17.7861 25.087 17.6719 24.9313 17.6719 24.9189C17.6719 24.9064 19.4924 24.894 21.7166 24.894H25.7613L25.5785 25.0932C24.4664 26.2888 24.6264 28.0136 25.9441 29.0909C26.5992 29.6264 27.6809 30 28.5721 30C29.8213 29.9938 31.1619 29.3586 31.7941 28.4744C32.5406 27.4345 32.4492 26.0646 31.558 25.0932L31.3752 24.894H32.0455C32.533 24.894 32.7844 24.8628 32.9748 24.7819C33.7365 24.4705 33.7746 23.6548 33.051 23.3061C32.7996 23.1816 32.6396 23.1816 22.6764 23.1629C12.8807 23.1504 12.5607 23.1442 12.6064 23.0321C12.6293 22.9698 12.8807 22.397 13.1625 21.7556L13.6729 20.5974H23.2553C32.7158 20.5974 32.8377 20.5974 33.1348 20.4729C33.3328 20.3919 33.4928 20.2612 33.5918 20.0993C33.8127 19.7443 39 6.49351 39 6.28803C39 6.01404 38.6877 5.57816 38.3906 5.43494C38.124 5.31041 38.0022 5.31041 23.7732 5.27927L9.42246 5.24814L8.8207 3.85332C8.18848 2.37132 8.10469 2.2281 7.8 2.0662C7.46484 1.88562 1.65293 0.0362339 1.33301 0.00510025C1.11211 -0.0135803 0.929297 0.0175533 0.685547 0.123411ZM17.9766 8.48612V9.63809H14.6326H11.2887L11.0906 9.18353C10.984 8.94068 10.7631 8.41762 10.5955 8.03156L10.2984 7.33414H14.1375H17.9766V8.48612ZM26.2641 8.46744L26.2412 9.60696L23.3695 9.62564L20.4902 9.63809V8.48612V7.33414H23.3848H26.2793L26.2641 8.46744ZM36.0293 7.3466C36.0293 7.35905 35.8236 7.86965 35.5799 8.48612L35.1381 9.60696H31.9465H28.7549L28.732 8.46744L28.7168 7.33414H32.373C34.384 7.33414 36.0293 7.34037 36.0293 7.3466ZM17.9766 13.0006V14.3083H15.6152C14.3203 14.3083 13.2539 14.302 13.2539 14.2896C13.2539 14.2833 13.0178 13.7167 12.7207 13.0317C12.4312 12.3468 12.1875 11.7677 12.1875 11.7428C12.1875 11.7179 13.49 11.693 15.082 11.693H17.9766V13.0006ZM26.2793 13.0006V14.3083H23.3848H20.4902V13.0006V11.693H23.3848H26.2793V13.0006ZM34.2773 11.749C34.2773 11.7801 34.0564 12.3592 33.7898 13.038L33.3023 14.2771L31.0096 14.2958L28.7168 14.3083V13.0006V11.693H31.4971C33.0357 11.693 34.2773 11.7179 34.2773 11.749ZM17.9766 17.4528V18.5425L16.5141 18.5301L15.0439 18.5114L14.6098 17.484C14.366 16.9173 14.168 16.4378 14.168 16.4067C14.168 16.3818 15.0287 16.3631 16.0723 16.3631H17.9766V17.4528ZM26.2793 17.4528V18.5425H23.3848H20.4902V17.4528V16.3631H23.3848H26.2793V17.4528ZM32.4416 16.4378C32.4416 16.4814 32.2588 16.9671 32.0455 17.5151L31.6418 18.5114L30.1793 18.5301L28.7168 18.5425V17.4528V16.3631H30.583C32.0303 16.3631 32.4492 16.3818 32.4416 16.4378ZM15.4477 25.6785C16.5674 26.0584 16.8035 27.2789 15.8818 27.9327C15.5238 28.1942 15.2953 28.2627 14.8078 28.2627C14.3203 28.2627 13.9699 28.1506 13.6424 27.8766C13.3072 27.6026 13.1777 27.3411 13.1777 26.9177C13.1777 25.9588 14.3736 25.3112 15.4477 25.6785ZM29.4938 25.8031C29.8746 26.0148 30.2402 26.5441 30.2402 26.8741C30.2402 27.64 29.5166 28.2627 28.6102 28.2689C27.2162 28.2814 26.4393 27.0734 27.2314 26.1393C27.7113 25.5727 28.8006 25.4046 29.4938 25.8031Z" fill="#FFFEFE"/>
</svg>